<?xml version="1.0" encoding="UTF-8" standalone="no"?>
<!DOCTYPE svg PUBLIC "-//W3C//DTD SVG 1.1//EN" "http://www.w3.org/Graphics/SVG/1.1/DTD/svg11.dtd">
<svg width="100%" height="100%" viewBox="0 0 323 249" version="1.1" xmlns="http://www.w3.org/2000/svg" xmlns:xlink="http://www.w3.org/1999/xlink" xml:space="preserve" xmlns:serif="http://www.serif.com/" style="fill-rule:evenodd;clip-rule:evenodd;stroke-linejoin:round;stroke-miterlimit:2;">
    <g transform="matrix(1,0,0,1,-2219.498949,-1229.738211)">
        <g transform="matrix(1,0,0,1,1109.892908,-13.712646)">
            <g transform="matrix(2.525763,0,0,2.525763,1087.679535,955.96372)">
                <path d="M52.863,158.222C45.689,159.959 22.393,161.076 14.452,149.107C-0.727,126.229 15.235,102.829 48.315,119.418C69.527,130.055 69.675,154.153 52.863,158.222Z" style="fill:white;"/>
            </g>
            <g transform="matrix(-2.525763,0,0,2.525763,1454.352246,955.96372)">
                <path d="M52.863,158.222C45.689,159.959 22.393,161.076 14.452,149.107C-0.727,126.229 15.235,102.829 48.315,119.418C69.527,130.055 69.675,154.153 52.863,158.222Z" style="fill:white;"/>
            </g>
            <g transform="matrix(2.525763,0,0,2.525763,1068.382369,1401.766293)">
                <path d="M30.584,23.61C28.241,-1.522 72.177,12.047 83.139,14.276C105.822,18.887 127.817,21.156 126.865,29.045C125.63,39.285 109.596,34.578 100.25,33.591C91.77,32.695 63.597,31.667 52.018,32.512C44.764,33.041 31.466,33.063 30.584,23.61Z" style="fill:white;"/>
            </g>
        </g>
    </g>
</svg>
