<?xml version="1.0" encoding="UTF-8" standalone="no"?>
<!DOCTYPE svg PUBLIC "-//W3C//DTD SVG 1.1//EN" "http://www.w3.org/Graphics/SVG/1.1/DTD/svg11.dtd">
<svg width="100%" height="100%" viewBox="0 0 358 59" version="1.1" xmlns="http://www.w3.org/2000/svg" xmlns:xlink="http://www.w3.org/1999/xlink" xml:space="preserve" xmlns:serif="http://www.serif.com/" style="fill-rule:evenodd;clip-rule:evenodd;stroke-linejoin:round;stroke-miterlimit:2;">
    <g transform="matrix(1,0,0,1,-1637.782113,-732.712211)">
        <g transform="matrix(2.525763,0,0,2.525763,1626.912109,417.852127)">
            <path d="M38.971,136.141C16.481,139.418 10.174,153.431 4.97,144.992C-3.2,131.741 66.44,116.583 66.083,129.686C65.843,138.485 52.212,134.212 38.971,136.141Z" style="fill:white;"/>
        </g>
        <g transform="matrix(-2.525763,0,0,2.525763,2005.85939,417.852127)">
            <path d="M38.971,136.141C33.831,136.89 29.537,138.2 25.908,139.674C13.656,144.65 8.985,151.503 4.97,144.992C-3.2,131.741 66.44,116.583 66.083,129.686C65.843,138.485 52.212,134.212 38.971,136.141Z" style="fill:white;"/>
        </g>
    </g>
</svg>
