<?xml version="1.0" encoding="UTF-8" standalone="no"?>
<!DOCTYPE svg PUBLIC "-//W3C//DTD SVG 1.1//EN" "http://www.w3.org/Graphics/SVG/1.1/DTD/svg11.dtd">
<svg width="100%" height="100%" viewBox="0 0 362 158" version="1.1" xmlns="http://www.w3.org/2000/svg" xmlns:xlink="http://www.w3.org/1999/xlink" xml:space="preserve" xmlns:serif="http://www.serif.com/" style="fill-rule:evenodd;clip-rule:evenodd;stroke-linejoin:round;stroke-miterlimit:2;">
    <g transform="matrix(1,0,0,1,-1084.010811,-666.615346)">
        <g transform="matrix(2.525763,0,0,2.525763,1077.679535,417.852127)">
            <path d="M43.133,160.654C32.9,161.619 11.916,159.917 5.664,147.767C-8.888,119.486 30.208,77.687 54.807,110.506C78.587,142.231 56.456,159.399 43.133,160.654Z" style="fill:white;"/>
        </g>
        <g transform="matrix(2.525763,0,0,2.525763,1077.679535,417.852127)">
            <path d="M105.102,160.654C115.336,161.619 136.32,159.917 142.572,147.767C157.124,119.486 118.028,77.687 93.429,110.506C69.649,142.231 91.78,159.399 105.102,160.654Z" style="fill:white;"/>
        </g>
    </g>
</svg>
