<?xml version="1.0" encoding="UTF-8" standalone="no"?>
<!DOCTYPE svg PUBLIC "-//W3C//DTD SVG 1.1//EN" "http://www.w3.org/Graphics/SVG/1.1/DTD/svg11.dtd">
<svg width="100%" height="100%" viewBox="0 0 362 150" version="1.1" xmlns="http://www.w3.org/2000/svg" xmlns:xlink="http://www.w3.org/1999/xlink" xml:space="preserve" xmlns:serif="http://www.serif.com/" style="fill-rule:evenodd;clip-rule:evenodd;stroke-linejoin:round;stroke-miterlimit:2;">
    <g transform="matrix(1,0,0,1,-5389.03377,-677.363274)">
        <g transform="matrix(1,0,0,1,4319.558386,0)">
            <g transform="matrix(2.525763,0,0,2.525763,1064.573365,417.852127)">
                <path d="M43.133,160.654C32.557,163.478 12.72,161.597 5.664,147.767C-11.416,114.288 34.673,89.48 54.807,110.506C71.475,127.913 60.548,156.005 43.133,160.654Z" style="fill:white;"/>
            </g>
        </g>
        <g transform="matrix(1,0,0,1,4319.558386,0)">
            <g transform="matrix(-2.525763,0,0,2.525763,1435.422481,417.852127)">
                <path d="M43.133,160.654C32.557,163.478 12.72,161.597 5.664,147.767C-11.416,114.288 34.673,89.48 54.807,110.506C71.475,127.913 60.548,156.005 43.133,160.654Z" style="fill:white;"/>
            </g>
        </g>
    </g>
</svg>
