<?xml version="1.0" encoding="UTF-8" standalone="no"?>
<!DOCTYPE svg PUBLIC "-//W3C//DTD SVG 1.1//EN" "http://www.w3.org/Graphics/SVG/1.1/DTD/svg11.dtd">
<svg width="100%" height="100%" viewBox="0 0 363 132" version="1.1" xmlns="http://www.w3.org/2000/svg" xmlns:xlink="http://www.w3.org/1999/xlink" xml:space="preserve" xmlns:serif="http://www.serif.com/" style="fill-rule:evenodd;clip-rule:evenodd;stroke-linejoin:round;stroke-miterlimit:2;">
    <g transform="matrix(1,0,0,1,-1632.330829,-116.984138)">
        <g transform="matrix(2.525763,0,0,2.525763,1630.416511,-609.959538)">
            <path d="M42.433,329.866C26.926,321.35 12.631,350.285 3.157,335.768C-8.99,317.154 27.701,265.688 52.3,298.506C76.08,330.232 61.647,340.418 42.433,329.866Z" style="fill:white;"/>
        </g>
        <g transform="matrix(-2.525763,0,0,2.525763,1996.903704,-609.959538)">
            <path d="M42.433,329.866C26.926,321.35 12.631,350.285 3.157,335.768C-8.99,317.154 27.701,265.688 52.3,298.506C76.08,330.232 61.647,340.418 42.433,329.866Z" style="fill:white;"/>
        </g>
    </g>
</svg>
