<?xml version="1.0" encoding="UTF-8" standalone="no"?>
<!DOCTYPE svg PUBLIC "-//W3C//DTD SVG 1.1//EN" "http://www.w3.org/Graphics/SVG/1.1/DTD/svg11.dtd">
<svg width="100%" height="100%" viewBox="0 0 363 361" version="1.1" xmlns="http://www.w3.org/2000/svg" xmlns:xlink="http://www.w3.org/1999/xlink" xml:space="preserve" xmlns:serif="http://www.serif.com/" style="fill-rule:evenodd;clip-rule:evenodd;stroke-linejoin:round;stroke-miterlimit:2;">
    <g transform="matrix(1,0,0,1,-1632.330829,-116.984138)">
        <g>
            <g transform="matrix(2.525763,0,0,2.525763,1630.416511,-609.959538)">
                <path d="M42.433,329.866C26.926,321.35 12.631,350.285 3.157,335.768C-8.99,317.154 27.701,265.688 52.3,298.506C76.08,330.232 61.647,340.418 42.433,329.866Z" style="fill:white;"/>
            </g>
            <g transform="matrix(-2.525763,0,0,2.525763,1996.903704,-609.959538)">
                <path d="M42.433,329.866C26.926,321.35 12.631,350.285 3.157,335.768C-8.99,317.154 27.701,265.688 52.3,298.506C76.08,330.232 61.647,340.418 42.433,329.866Z" style="fill:white;"/>
            </g>
            <g transform="matrix(2.525763,0,0,2.525763,1630.416511,-127.88486)">
                <path d="M11.217,185.965C18.615,181.74 39.161,190.319 75.23,191.073C109.312,191.785 123.843,181.276 133.078,186.064C142.091,190.736 123.035,223.395 104.132,232.195C80.56,243.169 58.245,241.082 40.582,230.808C25.821,222.223 0.076,192.328 11.217,185.965Z" style="fill:white;"/>
            </g>
        </g>
    </g>
</svg>
